<svg width="10" height="10" viewBox="0 0 10 10" fill="none" xmlns="http://www.w3.org/2000/svg">
<g clip-path="url(#clip0_632_336)">
<path d="M3.53007 9.98688C3.62775 10.0388 3.73079 9.92635 3.67099 9.83328C3.34638 9.32807 3.03899 8.47793 3.52873 7.38308C4.34543 5.55731 4.84239 4.61169 4.84239 4.61169C4.84239 4.61169 5.10672 5.71522 5.82326 6.69641C6.51289 7.64074 6.89035 8.82841 6.28182 9.81781C6.22472 9.91067 6.32542 10.0202 6.42246 9.97057C7.17573 9.58524 8.0206 8.81231 8.11593 7.27421C8.15108 6.80421 8.09836 6.1462 7.83478 5.31585C7.49588 4.26347 7.07924 3.7724 6.83818 3.56152C6.76607 3.49843 6.65393 3.55435 6.65985 3.64997C6.73009 4.78549 6.3029 5.07365 6.05975 4.42425C5.96264 4.16487 5.90601 3.71624 5.90601 3.1699C5.90601 2.26034 5.64212 1.32403 5.06033 0.563181C4.90904 0.365322 4.73202 0.180436 4.52891 0.022772C4.45538 -0.0343196 4.3488 0.0230661 4.35553 0.115909C4.4002 0.732512 4.35973 2.49966 2.80938 4.61084C1.40368 6.56919 1.94838 8.0732 2.14167 8.48055C2.51121 9.26093 3.02667 9.71921 3.53007 9.98688Z" fill="#E64A19"/>
</g>
<defs>
<clipPath id="clip0_632_336">
<rect width="10" height="10" fill="white"/>
</clipPath>
</defs>
</svg>
